<svg width="14" height="26" viewBox="0 0 14 26" fill="none" xmlns="http://www.w3.org/2000/svg">
<path d="M9.06816 1.67742L9.22725 1.70363H11.428V4.21976H9.22725C9.10351 4.21976 8.9842 4.22849 8.8693 4.24597C8.7544 4.26344 8.66159 4.29402 8.59089 4.3377C8.52018 4.38138 8.45389 4.42944 8.39202 4.48185C8.33016 4.53427 8.27713 4.58669 8.23293 4.63911C8.18874 4.69153 8.15339 4.74832 8.12687 4.80948C8.10036 4.87063 8.08268 4.92305 8.07384 4.96673L8.04733 5.09778L8.03407 5.18952V9.22581H12.3295L11.7197 11.7419H8.03407V24.3226H5.48861V11.7419H2.09467V9.22581H5.48861V5.32056C5.48861 4.7789 5.55932 4.29402 5.70074 3.86593C5.84215 3.43784 6.03218 3.10148 6.27081 2.85685C6.50945 2.61223 6.7525 2.40255 6.99998 2.22782C7.24745 2.05309 7.52144 1.93078 7.82195 1.86089C8.12245 1.79099 8.36109 1.74294 8.53786 1.71673C8.71463 1.69052 8.89139 1.67742 9.06816 1.67742ZM9.06816 0C7.9722 0 6.99114 0.262097 6.12498 0.78629C4.56942 1.71237 3.79164 3.22379 3.79164 5.32056V7.54839H2.09467C1.63508 7.54839 1.23735 7.71438 0.901493 8.04637C0.565634 8.37836 0.397705 8.77151 0.397705 9.22581V11.7419C0.397705 12.1962 0.565634 12.5894 0.901493 12.9214C1.23735 13.2534 1.63508 13.4194 2.09467 13.4194H3.79164V24.2964C3.79164 24.7681 3.95515 25.1657 4.28218 25.4889C4.6092 25.8122 5.01134 25.9738 5.48861 25.9738H8.03407C8.49367 25.9738 8.89139 25.8122 9.22725 25.4889C9.56311 25.1657 9.73104 24.7681 9.73104 24.2964V13.4194H11.7197C12.1086 13.4194 12.4533 13.3058 12.7538 13.0786C13.0543 12.8515 13.2576 12.5632 13.3636 12.2137L13.9469 9.69758C14.106 9.15591 14.0177 8.6623 13.6818 8.21673C13.3459 7.77117 12.8952 7.54839 12.3295 7.54839H9.73104V5.89718H11.428C11.8876 5.89718 12.2853 5.73118 12.6212 5.39919C12.957 5.0672 13.125 4.67406 13.125 4.21976V1.70363C13.125 1.23185 12.9615 0.834341 12.6344 0.511089C12.3074 0.187836 11.9141 0.0262097 11.4545 0.0262097H9.28028C9.20957 0.00873656 9.13887 0 9.06816 0Z" fill="#F8F8F8"/>
</svg>
