<svg width="26" height="26" viewBox="0 0 26 26" fill="none" xmlns="http://www.w3.org/2000/svg">
<path d="M12.9746 0.101562C15.1413 0.101562 16.9102 0.126953 18.2812 0.177734C19.4492 0.228516 20.4902 0.431641 21.4043 0.787109C22.2845 1.12565 23.0462 1.61654 23.6895 2.25977C24.3327 2.90299 24.8236 3.66471 25.1621 4.54492C25.5176 5.45898 25.7207 6.5 25.7715 7.66797C25.8223 9.03906 25.8477 10.8079 25.8477 12.9746C25.8477 15.1413 25.8223 16.9102 25.7715 18.2812C25.7207 19.4492 25.5176 20.4902 25.1621 21.4043C24.8236 22.2845 24.3327 23.0462 23.6895 23.6895C23.0462 24.3327 22.2845 24.8236 21.4043 25.1621C20.4902 25.5176 19.4492 25.7207 18.2812 25.7715C16.9102 25.8223 15.1413 25.8477 12.9746 25.8477C10.8079 25.8477 9.03906 25.8223 7.66797 25.7715C6.5 25.7207 5.45898 25.5176 4.54492 25.1621C3.66471 24.8236 2.90299 24.3327 2.25977 23.6895C1.61654 23.0462 1.12565 22.2845 0.787109 21.4043C0.431641 20.4902 0.228516 19.4492 0.177734 18.2812C0.126953 16.9102 0.101562 15.1413 0.101562 12.9746C0.101562 10.8079 0.126953 9.03906 0.177734 7.66797C0.228516 6.5 0.431641 5.45898 0.787109 4.54492C1.12565 3.66471 1.61654 2.90299 2.25977 2.25977C2.90299 1.61654 3.66471 1.12565 4.54492 0.787109C5.45898 0.431641 6.5 0.228516 7.66797 0.177734C9.03906 0.126953 10.8079 0.101562 12.9746 0.101562ZM12.9746 1.77734C10.7233 1.77734 8.88672 1.80273 7.46484 1.85352C6.55078 1.88737 5.70443 2.04818 4.92578 2.33594C3.70703 2.84375 2.84375 3.70703 2.33594 4.92578C2.04818 5.70443 1.88737 6.55078 1.85352 7.46484C1.80273 8.88672 1.77734 10.7233 1.77734 12.9746C1.77734 15.2259 1.80273 17.0625 1.85352 18.4844C1.88737 19.3984 2.04818 20.2448 2.33594 21.0234C2.84375 22.2422 3.70703 23.1055 4.92578 23.6133C5.70443 23.901 6.55078 24.0618 7.46484 24.0957C8.88672 24.1465 10.7233 24.1719 12.9746 24.1719C15.2259 24.1719 17.0625 24.1465 18.4844 24.0957C19.3984 24.0618 20.2448 23.901 21.0234 23.6133C22.2422 23.1055 23.1055 22.2422 23.6133 21.0234C23.901 20.2448 24.0618 19.3984 24.0957 18.4844C24.1465 17.0625 24.1719 15.2259 24.1719 12.9746C24.1719 10.7233 24.1465 8.88672 24.0957 7.46484C24.0618 6.55078 23.901 5.70443 23.6133 4.92578C23.1055 3.70703 22.2422 2.84375 21.0234 2.33594C20.2448 2.04818 19.3984 1.88737 18.4844 1.85352C17.0625 1.80273 15.2259 1.77734 12.9746 1.77734ZM12.9746 18.1289C14.3965 18.1289 15.611 17.6253 16.6182 16.6182C17.6253 15.611 18.1289 14.3965 18.1289 12.9746C18.1289 11.5527 17.6253 10.3382 16.6182 9.33105C15.611 8.32389 14.3965 7.82031 12.9746 7.82031C11.5527 7.82031 10.3382 8.32389 9.33105 9.33105C8.32389 10.3382 7.82031 11.5527 7.82031 12.9746C7.82031 14.3965 8.32389 15.611 9.33105 16.6182C10.3382 17.6253 11.5527 18.1289 12.9746 18.1289ZM12.9746 6.37305C14.8027 6.37305 16.36 7.01628 17.6465 8.30273C18.9329 9.58919 19.5762 11.1465 19.5762 12.9746C19.5762 14.8027 18.9329 16.36 17.6465 17.6465C16.36 18.9329 14.8027 19.5762 12.9746 19.5762C11.1465 19.5762 9.58919 18.9329 8.30273 17.6465C7.01628 16.36 6.37305 14.8027 6.37305 12.9746C6.37305 11.1465 7.01628 9.58919 8.30273 8.30273C9.58919 7.01628 11.1465 6.37305 12.9746 6.37305ZM21.4043 6.11914C21.4043 6.54232 21.252 6.90202 20.9473 7.19824C20.6426 7.49447 20.2702 7.64258 19.8301 7.64258C19.4069 7.64258 19.0472 7.49447 18.751 7.19824C18.4548 6.90202 18.3066 6.54232 18.3066 6.11914C18.3066 5.67904 18.4548 5.30664 18.751 5.00195C19.0472 4.69727 19.4069 4.54492 19.8301 4.54492C20.2533 4.54492 20.6214 4.7015 20.9346 5.01465C21.2477 5.3278 21.4043 5.69596 21.4043 6.11914Z" fill="#F8F8F8"/>
</svg>
