<svg width="31" height="46" viewBox="0 0 31 46" fill="none" xmlns="http://www.w3.org/2000/svg">
<path d="M8.54883 34.076C9.83403 35.7714 11.0037 37.5573 12.0495 39.4207C12.9423 41.1733 13.3145 42.3616 13.9671 44.4732C14.3672 45.6399 14.7289 45.9881 15.5065 45.9881C16.3538 45.9881 16.7383 45.3957 17.0353 44.4796C17.6521 42.4854 18.1361 40.9636 18.8996 39.5255C20.3979 36.7492 22.2597 34.2822 24.089 31.9111C24.5842 31.24 27.7862 27.3305 29.2277 24.2458C29.2277 24.2458 30.9993 20.8572 30.9993 16.1247C30.9993 11.6979 29.2521 8.62769 29.2521 8.62769L24.2217 10.0222L21.1668 18.3512L20.411 19.4997L20.2599 19.7078L20.0589 19.9683L19.706 20.3843L19.2018 20.9061L16.4815 23.2003L9.68023 27.2653L8.54883 34.076Z" fill="#34A853"/>
<path d="M1.5293 23.6755C3.18923 27.6002 6.39018 31.0504 8.55587 34.0781L20.0589 19.973C20.0589 19.973 18.4383 22.167 15.4987 22.167C12.2242 22.167 9.57891 19.4603 9.57891 16.0472C9.57891 13.7067 10.9392 12.0989 10.9392 12.0989L3.13062 14.2648L1.5293 23.6753V23.6755Z" fill="#FBBC04"/>
<path d="M20.1872 0.725223C24.0076 2.00031 27.2776 4.67721 29.2555 8.62456L20.0623 19.9651C20.0623 19.9651 21.4225 18.3282 21.4225 16.0022C21.4225 12.5097 18.5815 9.90066 15.5124 9.90066C12.6102 9.90066 10.9434 12.091 10.9434 12.091V4.94657L20.1872 0.725098V0.725223Z" fill="#4285F4"/>
<path d="M3.63477 5.73621C5.91658 2.91016 9.9317 0 15.4671 0C18.1528 0 20.1761 0.729858 20.1761 0.729858L10.9331 12.0974H4.38427L3.63477 5.73634V5.73621Z" fill="#1A73E8"/>
<path d="M1.52905 23.6755C1.52905 23.6755 0.00195312 20.5798 0.00195312 16.0951C0.00195312 11.8565 1.59371 8.1514 3.63626 5.73584L10.9398 12.098L1.52905 23.6755Z" fill="#EA4335"/>
</svg>
