<svg width="39" height="56" viewBox="0 0 39 56" fill="none" xmlns="http://www.w3.org/2000/svg">
<path d="M10.7539 41.4834C12.3708 43.5474 13.8423 45.7215 15.1579 47.9901C16.2812 50.1236 16.7495 51.5703 17.5704 54.141C18.0738 55.5613 18.5289 55.9852 19.5071 55.9852C20.5731 55.9852 21.0568 55.264 21.4304 54.1488C22.2064 51.7211 22.8153 49.8683 23.7759 48.1177C25.6608 44.7379 28.003 41.7345 30.3045 38.8479C30.9275 38.031 34.9557 33.2716 36.7692 29.5162C36.7692 29.5162 38.9981 25.391 38.9981 19.6297C38.9981 14.2406 36.8 10.5029 36.8 10.5029L30.4714 12.2006L26.6281 22.3403L25.6773 23.7385L25.4872 23.9918L25.2343 24.3088L24.7904 24.8153L24.1561 25.4505L20.7337 28.2435L12.1773 33.1922L10.7539 41.4834Z" fill="#34A853"/>
<path d="M1.92188 28.8225C4.01017 33.6005 8.03718 37.8006 10.7618 41.4866L25.2333 24.3152C25.2333 24.3152 23.1945 26.9861 19.4962 26.9861C15.3768 26.9861 12.0488 23.6909 12.0488 19.5359C12.0488 16.6867 13.7601 14.7292 13.7601 14.7292L3.93644 17.366L1.92188 28.8223V28.8225Z" fill="#FBBC04"/>
<path d="M25.395 0.882721C30.2013 2.435 34.3152 5.69384 36.8035 10.4993L25.2378 24.3052C25.2378 24.3052 26.9491 22.3124 26.9491 19.4808C26.9491 15.2291 23.3749 12.0528 19.5138 12.0528C15.8626 12.0528 13.7656 14.7193 13.7656 14.7193V6.02175L25.395 0.882568V0.882721Z" fill="#4285F4"/>
<path d="M4.57422 6.98321C7.44489 3.5428 12.4962 0 19.4601 0C22.8388 0 25.3842 0.888523 25.3842 0.888523L13.7559 14.7272H5.51714L4.57422 6.98337V6.98321Z" fill="#1A73E8"/>
<path d="M1.92119 28.8226C1.92119 28.8226 0 25.0539 0 19.5943C0 14.4342 2.00254 9.92372 4.5722 6.98303L13.7605 14.7283L1.92119 28.8226Z" fill="#EA4335"/>
</svg>
