<svg width="36" height="38" viewBox="0 0 36 38" fill="none" xmlns="http://www.w3.org/2000/svg">
<path d="M35.9796 29.989C35.8937 29.4286 35.561 28.9497 35.0626 28.6651L27.6903 24.0788L27.6297 24.043C27.3205 23.8796 26.9792 23.7959 26.6335 23.7986C26.0158 23.7986 25.4259 24.0457 25.0166 24.479L22.8406 26.7776C22.7475 26.871 22.4441 27.0062 22.352 27.0111C22.3268 27.0089 19.8202 26.8183 15.2055 21.9453C10.599 17.0827 10.4036 14.4279 10.4021 14.4279C10.4046 14.2921 10.5311 13.9728 10.6211 13.874L12.4767 11.9153C13.1304 11.2235 13.3263 10.0767 12.9385 9.18832L8.84068 1.04693C8.54291 0.399657 7.96434 0 7.32251 0C6.86839 0 6.43022 0.198743 6.0877 0.559847L1.02969 5.88843C0.544716 6.39778 0.127115 7.28832 0.0360857 8.0051C-0.00814303 8.34774 -0.905574 16.5266 9.71446 27.7415C18.7304 37.2599 25.7607 37.9995 27.7022 37.9995C27.9386 38.0027 28.175 37.9899 28.4098 37.961C29.0866 37.8654 29.929 37.4255 30.4109 36.9157L35.4648 31.58C35.8773 31.1423 36.0655 30.564 35.9796 29.989Z" fill="#00377B"/>
</svg>
