<svg width="44" height="42" viewBox="0 0 44 42" fill="none" xmlns="http://www.w3.org/2000/svg">
<path d="M22 0C9.85089 0 0 9.40312 0 21C0 32.5969 9.85089 42 22 42C34.1491 42 44 32.5969 44 21C44 9.40312 34.1491 0 22 0ZM32.5728 15.8297C32.5875 16.05 32.5875 16.2797 32.5875 16.5047C32.5875 23.3859 27.0973 31.3125 17.0647 31.3125C13.971 31.3125 11.1031 30.4547 8.68705 28.9781C9.12902 29.025 9.55134 29.0437 10.0031 29.0437C12.5567 29.0437 14.904 28.2188 16.775 26.8219C14.3786 26.775 12.3652 25.275 11.6777 23.2125C12.5174 23.3297 13.2737 23.3297 14.1379 23.1187C12.904 22.8795 11.7949 22.2398 10.9991 21.3084C10.2033 20.377 9.7698 19.2113 9.77232 18.0094V17.9438C10.4942 18.3328 11.3438 18.5719 12.2326 18.6047C11.4854 18.1293 10.8726 17.4854 10.4486 16.7298C10.0246 15.9743 9.80239 15.1306 9.80179 14.2734C9.80179 13.3031 10.067 12.4172 10.5433 11.6484C11.9129 13.2578 13.622 14.5741 15.5594 15.5117C17.4969 16.4493 19.6193 16.9873 21.7888 17.0906C21.0179 13.5516 23.7875 10.6875 27.117 10.6875C28.6884 10.6875 30.1027 11.3156 31.0996 12.3281C32.3321 12.1078 33.5107 11.6672 34.5616 11.0766C34.154 12.2812 33.2996 13.2984 32.1652 13.9406C33.2652 13.8281 34.3259 13.5375 35.308 13.1297C34.5665 14.1703 33.6384 15.0938 32.5728 15.8297Z" fill="#2AA9E0"/>
</svg>
