<svg width="40" height="38" viewBox="0 0 40 38" fill="none" xmlns="http://www.w3.org/2000/svg">
<path fill-rule="evenodd" clip-rule="evenodd" d="M29.1647 22.1947C28.6656 21.9647 26.2189 20.8567 25.7634 20.7024C25.3079 20.5496 24.9763 20.474 24.643 20.9338C24.3114 21.3906 23.3585 22.4246 23.0688 22.7302C22.7774 23.0373 22.4877 23.0743 21.9903 22.8459C21.4929 22.6144 19.8886 22.1314 17.9878 20.5697C16.5091 19.3536 15.5093 17.852 15.2196 17.3922C14.9298 16.9338 15.1877 16.6854 15.4373 16.457C15.6617 16.2517 15.9346 15.9215 16.1842 15.6545C16.4337 15.386 16.5158 15.1946 16.6816 14.8875C16.849 14.582 16.7653 14.315 16.6397 14.085C16.5158 13.8551 15.521 11.5974 15.1057 10.6791C14.7021 9.78562 14.2918 9.90754 13.987 9.89211C13.6956 9.87976 13.364 9.87667 13.0324 9.87667C12.7008 9.87667 12.1616 9.99087 11.7061 10.4508C11.2489 10.9091 9.96439 12.0187 9.96439 14.2764C9.96439 16.5326 11.7463 18.7132 11.9958 19.0203C12.2453 19.3258 15.5043 23.9586 20.4965 25.9447C21.6855 26.4169 22.6116 26.6993 23.3334 26.9092C24.5258 27.2595 25.611 27.2101 26.4684 27.0913C27.423 26.9601 29.4125 25.9817 29.8279 24.9107C30.2415 23.8397 30.2415 22.9215 30.1176 22.7302C29.9936 22.5388 29.6621 22.4246 29.163 22.1947H29.1647ZM20.0845 33.6191H20.0778C17.1127 33.6196 14.202 32.8851 11.6508 31.4926L11.0479 31.1623L4.78123 32.6778L6.45424 27.0481L6.06069 26.4709C4.40298 24.0393 3.52571 21.2252 3.53024 18.3536C3.53359 9.94303 10.9592 3.10039 20.0912 3.10039C24.5124 3.10039 28.669 4.68991 31.7939 7.57265C33.3353 8.98713 34.557 10.6692 35.3883 12.5216C36.2196 14.374 36.6441 16.3599 36.6371 18.3644C36.6338 26.7749 29.2082 33.6191 20.0845 33.6191ZM34.172 5.38282C32.3268 3.67127 30.1314 2.31418 27.7129 1.3902C25.2944 0.466214 22.7009 -0.00629055 20.0828 6.32374e-05C9.10695 6.32374e-05 0.170818 8.23314 0.167469 18.352C0.165794 21.5866 1.08185 24.7441 2.8252 27.5265L0 37.0374L10.5572 34.4849C13.4777 35.9511 16.7504 36.7194 20.0761 36.7195H20.0845C31.0604 36.7195 39.9966 28.4864 39.9999 18.3659C40.008 15.9543 39.4971 13.5651 38.4967 11.3366C37.4964 9.1081 36.0265 7.08448 34.172 5.38282Z" fill="#00A859"/>
</svg>
